<svg width="419" height="427" viewBox="0 0 419 427" fill="none" xmlns="http://www.w3.org/2000/svg">
<g clip-path="url(#clip0)">
<path d="M19.4723 192.292C16.9581 193.08 14.2808 193.191 11.71 192.614C9.13926 192.037 6.76589 190.793 4.829 189.007C2.8921 187.221 1.46009 184.957 0.677192 182.441C-0.105705 179.926 -0.211831 177.249 0.369515 174.679C9.09208 138.394 42.2594 49.6577 163.089 12.3354C215.428 -3.83129 265.621 -4.10728 312.214 11.509C350.544 24.3029 375.99 44.3238 388.162 54.0006C391.254 56.447 393.248 60.0217 393.705 63.9382C394.162 67.8546 393.044 71.7921 390.597 74.8844C390.567 74.9227 390.536 74.9608 390.506 74.9988C387.993 78.1006 384.362 80.0911 380.396 80.5413C376.43 80.9915 372.445 79.8654 369.301 77.4056C347.249 60.0316 280.328 7.24986 171.868 40.7515C65.9629 73.4638 37.1949 149.98 29.7333 181.285C29.1666 183.871 27.9153 186.257 26.1101 188.193C24.3049 190.13 22.0124 191.546 19.4724 192.292L19.4723 192.292Z" fill="#FF7900"/>
<path d="M348.804 397.814C347.604 398.201 346.359 398.435 345.1 398.51C250.704 403.594 190.646 325.178 188.18 321.909L187.723 321.154C186.218 318.82 149.878 263.535 165.876 219.627C173.224 199.554 189.475 185.465 214.316 177.792C237.419 170.656 256.324 172.766 272.415 184.256C285.609 193.617 294.065 207.577 302.26 221.057C319.306 249.047 329.752 263.288 362.152 255.071C376.377 251.461 383.02 240.34 386.054 231.677C394.225 208.102 386.984 175.964 367.826 151.65C343.076 120.105 273.811 67.7113 188.351 94.1084C151.857 105.381 121.991 127.595 101.99 158.182C85.4202 183.567 75.7877 215.095 75.5766 244.496C75.2441 299.24 120.114 371.262 120.539 371.914C121.573 373.567 122.27 375.406 122.592 377.328C122.914 379.25 122.855 381.217 122.417 383.116C121.979 385.014 121.171 386.808 120.04 388.395C118.908 389.982 117.476 391.33 115.823 392.363C115.777 392.392 115.731 392.421 115.685 392.449C112.3 394.56 108.219 395.255 104.325 394.384C100.432 393.513 97.0367 391.145 94.874 387.792C92.8488 384.498 44.9374 307.706 45.3234 244.435C45.8607 175.855 87.539 94.0079 179.541 65.5899C222.067 52.4545 266.757 54.6622 308.812 71.9039C341.409 85.3491 371.577 107.606 391.522 133.021C416.997 165.462 425.972 207.925 414.375 241.068C406.643 263.163 390.637 278.408 369.365 283.859C313.925 297.96 292.206 262.456 276.367 236.557C260.101 210.005 251.104 197.556 222.993 206.24C207.557 211.007 198.047 218.648 194.048 229.624C188.605 244.63 193.763 263.863 199.048 277.347C199.103 277.488 199.158 277.628 199.213 277.769C205.989 294.907 216.563 310.285 230.141 322.747C251.89 342.83 292.268 371.462 343.729 368.701C347.664 368.457 351.534 369.785 354.489 372.394C357.443 375.003 359.241 378.678 359.485 382.612C359.488 382.66 359.491 382.707 359.493 382.755C359.614 386.091 358.632 389.373 356.7 392.095C354.768 394.817 351.993 396.827 348.804 397.813L348.804 397.814Z" fill="#FF7900"/>
<path d="M234.336 426.005C232.368 426.614 230.298 426.817 228.249 426.603C226.2 426.389 224.217 425.762 222.417 424.76C175.86 398.383 143.176 362.907 119.64 313.184L119.546 312.877C104.713 279.725 95.7834 229.073 115.48 186.263C130.021 154.675 157.315 132.471 196.467 120.378C242.775 106.074 285.893 116.606 321.281 150.687C337.375 166.416 350.463 184.951 359.902 205.38C361.406 209.055 361.403 213.176 359.894 216.849C358.384 220.522 355.489 223.454 351.834 225.009C348.18 226.565 344.06 226.619 340.365 225.161C336.671 223.703 333.699 220.849 332.092 217.217C324.101 200.167 313.067 184.717 299.531 171.625C272.254 145.676 240.545 138.003 205.175 148.928C174.61 158.369 153.563 175.06 142.789 198.542C127.251 232.342 135.251 274.547 146.859 300.522C167.611 344.498 196.397 375.692 237.374 398.866C239.066 399.82 240.554 401.099 241.753 402.628C242.951 404.158 243.837 405.909 244.359 407.78C244.881 409.652 245.029 411.608 244.795 413.537C244.56 415.466 243.949 417.33 242.994 419.023C242.956 419.09 242.918 419.157 242.879 419.223C240.97 422.464 237.926 424.881 234.336 426.005Z" fill="#FF7900"/>
<path d="M239.239 277.359C249.875 277.359 258.497 268.738 258.497 258.103C258.497 247.467 249.875 238.846 239.239 238.846C228.603 238.846 219.98 247.467 219.98 258.103C219.98 268.738 228.603 277.359 239.239 277.359Z" fill="#E6E6E6"/>
</g>
<defs>
<clipPath id="clip0">
<rect width="419" height="426.21" fill="white"/>
</clipPath>
</defs>
</svg>
