<svg width="155" height="155" viewBox="0 0 155 155" fill="none" xmlns="http://www.w3.org/2000/svg">
<path d="M77.3752 154.75C120.108 154.75 154.75 120.108 154.75 77.3752C154.75 34.6421 120.108 0 77.3752 0C34.6421 0 0 34.6421 0 77.3752C0 120.108 34.6421 154.75 77.3752 154.75Z" fill="#B281DC"/>
<path d="M109.43 111.089H45.3194C44.1471 111.088 43.0231 110.622 42.1942 109.793C41.3653 108.964 40.8991 107.84 40.8979 106.667V67.9798C40.8992 66.8075 41.3654 65.6836 42.1943 64.8547C43.0232 64.0258 44.1471 63.5596 45.3194 63.5583H109.43C110.603 63.5596 111.726 64.0258 112.555 64.8547C113.384 65.6836 113.85 66.8075 113.852 67.9798V106.667C113.851 107.84 113.384 108.964 112.555 109.793C111.726 110.622 110.603 111.088 109.43 111.089ZM45.3194 67.9798V106.667H109.434L109.43 67.9798L45.3194 67.9798Z" fill="white"/>
<path d="M97.2715 67.9798H57.4785V50.294C57.4785 37.4841 65.8464 28.1868 77.375 28.1868C88.9036 28.1868 97.2715 37.4841 97.2715 50.294L97.2715 67.9798ZM61.9 63.5583H92.8501V50.294C92.8501 39.881 86.4867 32.6082 77.3751 32.6082C68.2634 32.6082 61.9 39.881 61.9 50.294L61.9 63.5583Z" fill="white"/>
</svg>
